<svg xmlns="http://www.w3.org/2000/svg" height="48" viewBox="0 -960 960 960" width="48"><path d="M750.826-321.585q0 108.781-77.902 183.781-77.903 75-187.143 75-110.065 0-187.097-75-77.032-75-77.032-183.718v-390.956q0-78.031 55.664-131.494 55.665-53.463 133.032-53.463 77.606 0 133.325 53.463 55.718 53.463 55.718 131.494V-341q0 46.041-33.337 78.618-33.337 32.578-79.975 32.578-46.877 0-79.934-32.25-33.058-32.25-33.058-78.946v-370.522h74.87V-341q0 15.861 11.516 26.213t27.042 10.352q15.764 0 26.885-10.436 11.122-10.436 11.122-26.129v-371.239q0-46.584-33.5-78.575-33.5-31.99-80.712-31.99-46.972 0-80.38 31.851-33.408 31.851-33.408 78.475v390.956q0 77.822 55.744 130.574 55.745 52.752 134.631 52.752 77.366 0 133.213-52.782 55.847-52.783 55.086-130.544v-408.152h75.63v408.089Z"/></svg>