<svg xmlns="http://www.w3.org/2000/svg" height="48" viewBox="0 -960 960 960" width="48"><path d="M480.16-407.739q-49.595 0-82.551-35.241-32.957-35.241-32.957-85.346v-250.565q0-47.446 33.308-80.897 33.309-33.451 81.892-33.451t82.159 33.451q33.576 33.451 33.576 80.897v250.565q0 50.105-32.916 85.346-32.916 35.241-82.511 35.241ZM442.522-97.022v-136.195q-114.435-12-190.533-95.84-76.098-83.839-76.098-199.269h74.674q0 94.478 67.139 159.196 67.139 64.717 162.396 64.717 95.257 0 162.296-64.751 67.039-64.752 67.039-159.162h74.674q0 115.258-76.479 199.184-76.478 83.925-190.673 95.9v136.22h-74.435Z"/></svg>